<?xml version="1.0" encoding="UTF-8" standalone="no"?>
<svg
   xmlns:dc="http://purl.org/dc/elements/1.1/"
   xmlns:cc="http://creativecommons.org/ns#"
   xmlns:rdf="http://www.w3.org/1999/02/22-rdf-syntax-ns#"
   xmlns:svg="http://www.w3.org/2000/svg"
   xmlns="http://www.w3.org/2000/svg"
   xmlns:sodipodi="http://sodipodi.sourceforge.net/DTD/sodipodi-0.dtd"
   xmlns:inkscape="http://www.inkscape.org/namespaces/inkscape"
   id="Layer_1"
   style="enable-background:new 0 0 512 512;"
   version="1.1"
   viewBox="0 0 512 512"
   xml:space="preserve"
   sodipodi:docname="growth.svg"
   inkscape:version="0.92.1 r"><metadata
     id="metadata37"><rdf:RDF><cc:Work
         rdf:about=""><dc:format>image/svg+xml</dc:format><dc:type
           rdf:resource="http://purl.org/dc/dcmitype/StillImage" /><dc:title></dc:title></cc:Work></rdf:RDF></metadata><defs
     id="defs35" /><sodipodi:namedview
     pagecolor="#ffffff"
     bordercolor="#666666"
     borderopacity="1"
     objecttolerance="10"
     gridtolerance="10"
     guidetolerance="10"
     inkscape:pageopacity="0"
     inkscape:pageshadow="2"
     inkscape:window-width="1384"
     inkscape:window-height="861"
     id="namedview33"
     showgrid="false"
     inkscape:zoom="1.2423706"
     inkscape:cx="231.8469"
     inkscape:cy="243.92631"
     inkscape:window-x="0"
     inkscape:window-y="0"
     inkscape:window-maximized="0"
     inkscape:current-layer="g30" /><style
     type="text/css"
     id="style2">
	.st0{fill:#F4908C;}
	.st1{fill:#FBD502;}
	.st2{fill:#2E4356;}
	.st3{fill:#CCE134;}
	.st4{fill:#232323;}
</style><g
     id="g30"><g
       id="g10"
       transform="matrix(-1,0,0,1,512.00001,0)"><g
         id="g8"><polygon
           class="st0"
           id="XMLID_14_"
           points="366.4,139.2 287.5,139.2 287.5,506 366.4,506 "
           style="display:none;fill:#f4908c" /><rect
           class="st2"
           height="183.39999"
           id="XMLID_12_"
           width="78.900002"
           x="168.3"
           y="322.60001"
           style="fill:#2e4356" /><polygon
           class="st3"
           id="XMLID_11_"
           points="49.1,506 128,506 128,207 49.1,207 49.1,506 "
           style="display:none;fill:#cce134" /></g></g><g
       id="g15"
       transform="matrix(-1,0,0,1,512.00001,0)"><path
         class="st4"
         d="M 198.4,232.5 95,142.4 l -12.9,14.8 102,88.9 c 2.5,-6.1 7.3,-11.3 14.3,-13.6 z"
         id="XMLID_10_"
         inkscape:connector-curvature="0"
         style="fill:#232323" /><path
         class="st4"
         d="m 304.7,51.1 -96.1,180.2 c 7.8,0.4 13.7,3.9 17.5,8.8 L 320.4,63.2 C 312.9,61.6 307.7,57 304.7,51.1 Z"
         id="XMLID_9_"
         inkscape:connector-curvature="0"
         style="fill:#232323" /><path
         class="st4"
         d="M 433.8,171.2 349.9,46.8 c -2.1,6.6 -6.6,12.3 -13.5,15.1 l 79.7,118.2 c 3.9,-5 9.8,-8.4 17.7,-8.9 z"
         id="XMLID_8_"
         inkscape:connector-curvature="0"
         style="fill:#232323" /></g><polygon
       class="st4"
       id="XMLID_7_"
       points="57.2,194.9 126.1,109.9 26.5,99.6 "
       transform="matrix(-1,0,0,1,512.00001,0)"
       style="fill:#232323" /><g
       id="g20"
       transform="matrix(-1,0,0,1,512.00001,0)"><path
         class="st4"
         d="m 438.7,226.9 c -17.7,0 -32.1,-14.4 -32.1,-32.1 0,-17.7 14.4,-32.1 32.1,-32.1 17.7,0 32.1,14.4 32.1,32.1 0,17.7 -14.4,32.1 -32.1,32.1 z m 0,-48.2 c -8.9,0 -16.1,7.2 -16.1,16.1 0,8.9 7.2,16.1 16.1,16.1 8.9,0 16.1,-7.2 16.1,-16.1 0,-8.8 -7.2,-16.1 -16.1,-16.1 z"
         id="path18"
         inkscape:connector-curvature="0"
         style="fill:#232323" /></g><g
       id="g24"
       transform="matrix(-1,0,0,1,512.00001,0)"><path
         class="st4"
         d="M 326.9,70.1 C 309.2,70.1 294.8,55.7 294.8,38 294.8,20.3 309.2,5.9 326.9,5.9 344.6,6 359,20.4 359,38.1 c 0,17.6 -14.4,32 -32.1,32 z m 0,-48.2 c -8.9,0 -16.1,7.2 -16.1,16.1 0,8.9 7.2,16.1 16.1,16.1 8.9,0 16.1,-7.2 16.1,-16.1 0,-8.8 -7.2,-16.1 -16.1,-16.1 z"
         id="path22"
         inkscape:connector-curvature="0"
         style="fill:#232323" /></g><g
       id="g28"
       transform="matrix(-1,0,0,1,512.00001,0)"><path
         class="st4"
         d="m 207.7,288.3 c -17.7,0 -32.1,-14.4 -32.1,-32.1 0,-17.7 14.4,-32.1 32.1,-32.1 17.7,0 32.1,14.4 32.1,32.1 0,17.7 -14.4,32.1 -32.1,32.1 z m 0,-48.2 c -8.9,0 -16.1,7.2 -16.1,16.1 0,8.9 7.2,16.1 16.1,16.1 8.9,0 16.1,-7.2 16.1,-16.1 0.1,-8.8 -7.2,-16.1 -16.1,-16.1 z"
         id="path26"
         inkscape:connector-curvature="0"
         style="fill:#232323" /></g><path
       style="fill:#618eb4;fill-opacity:1;stroke:none;stroke-width:1.37012351;stroke-miterlimit:4;stroke-dasharray:none;stroke-opacity:1"
       d="M 144.15413,333.84324 V 160.5537 h 40.64809 40.6481 v 173.28954 173.28955 h -40.6481 -40.64809 z"
       id="path4518"
       inkscape:connector-curvature="0" /><path
       style="fill:#86accf;fill-opacity:1;stroke:none;stroke-width:1.35376072;stroke-miterlimit:4;stroke-dasharray:none;stroke-opacity:1"
       d="M 382.40832,369.28631 V 231.43983 h 41.05055 41.05055 v 137.84648 137.84648 h -41.05055 -41.05055 z"
       id="path4528"
       inkscape:connector-curvature="0" /><path
       style="fill:#1e2b37;fill-opacity:1;stroke:#000000;stroke-width:1.3844943;stroke-miterlimit:4;stroke-dasharray:none;stroke-opacity:1"
       d="M 25.027034,377.21984 V 247.30687 H 65.675131 106.32323 V 377.21984 507.13279 H 65.675131 25.027034 Z"
       id="path4538"
       inkscape:connector-curvature="0" /></g></svg>