<?xml version="1.0" encoding="utf-8"?>
<!-- Generator: Adobe Illustrator 19.0.0, SVG Export Plug-In . SVG Version: 6.00 Build 0)  -->
<svg version="1.1"
	 id="svg4" xmlns:cc="http://creativecommons.org/ns#" xmlns:dc="http://purl.org/dc/elements/1.1/" xmlns:rdf="http://www.w3.org/1999/02/22-rdf-syntax-ns#" xmlns:svg="http://www.w3.org/2000/svg" xmlns:sodipodi="http://sodipodi.sourceforge.net/DTD/sodipodi-0.dtd" xmlns:inkscape="http://www.inkscape.org/namespaces/inkscape" inkscape:version="0.92.1 r" sodipodi:docname="key.svg"
	 xmlns="http://www.w3.org/2000/svg" xmlns:xlink="http://www.w3.org/1999/xlink" x="0px" y="0px"
	 viewBox="-969 1001.6 896.9 832.1" style="enable-background:new -969 1001.6 896.9 832.1;" xml:space="preserve">
<style type="text/css">
	.st0{fill:#FFFFFF;}
</style>
<sodipodi:namedview  inkscape:cy="404.92225" borderopacity="1" objecttolerance="10" showgrid="false" guidetolerance="10" gridtolerance="10" pagecolor="#ffffff" bordercolor="#666666" id="namedview6" inkscape:cx="448.45001" inkscape:zoom="0.52575684" inkscape:current-layer="svg4" inkscape:window-maximized="0" inkscape:window-y="161" inkscape:window-x="520" inkscape:window-height="755" inkscape:pageshadow="2" inkscape:pageopacity="0" inkscape:window-width="1398">
	</sodipodi:namedview>
<path id="path2" inkscape:connector-curvature="0" class="st0" d="M-328.1,1001.6c-141.4,0-256,114.6-256,256
	c0,19.6,2.2,38.6,6.4,56.9L-969,1705.7v64l64,64h128l64-64v-64h64v-64h64v-64h128l70.8-70.8c18.7,4.3,38.1,6.6,58.1,6.6
	c141.4,0,256-114.6,256-256C-72.1,1116.1-186.8,1001.6-328.1,1001.6z M-585,1449.7l-320,320v-64l320-320V1449.7z M-265,1257.7
	c-35.3,0-64-28.7-64-64s28.7-64,64-64s64,28.7,64,64S-229.7,1257.7-265,1257.7z"/>
</svg>
