<?xml version="1.0" encoding="UTF-8" standalone="no"?>
<!-- Created with Inkscape (http://www.inkscape.org/) -->

<svg
   xmlns:dc="http://purl.org/dc/elements/1.1/"
   xmlns:cc="http://creativecommons.org/ns#"
   xmlns:rdf="http://www.w3.org/1999/02/22-rdf-syntax-ns#"
   xmlns:svg="http://www.w3.org/2000/svg"
   xmlns="http://www.w3.org/2000/svg"
   xmlns:sodipodi="http://sodipodi.sourceforge.net/DTD/sodipodi-0.dtd"
   xmlns:inkscape="http://www.inkscape.org/namespaces/inkscape"
   width="285mm"
   height="171mm"
   viewBox="0 0 285 171"
   version="1.1"
   id="svg8"
   inkscape:version="0.92.1 r"
   sodipodi:docname="logo-white.svg">
  <defs
     id="defs2" />
  <sodipodi:namedview
     id="base"
     pagecolor="#ffffff"
     bordercolor="#666666"
     borderopacity="1.0"
     inkscape:pageopacity="0.0"
     inkscape:pageshadow="2"
     inkscape:zoom="0.47919922"
     inkscape:cx="7.3466624"
     inkscape:cy="326.79405"
     inkscape:document-units="mm"
     inkscape:current-layer="g18"
     showgrid="false"
     inkscape:window-width="1600"
     inkscape:window-height="872"
     inkscape:window-x="0"
     inkscape:window-y="0"
     inkscape:window-maximized="1"
     inkscape:showpageshadow="false"
     showborder="true"
     inkscape:pagecheckerboard="true" />
  <metadata
     id="metadata5">
    <rdf:RDF>
      <cc:Work
         rdf:about="">
        <dc:format>image/svg+xml</dc:format>
        <dc:type
           rdf:resource="http://purl.org/dc/dcmitype/StillImage" />
        <dc:title></dc:title>
      </cc:Work>
    </rdf:RDF>
  </metadata>
  <g
     inkscape:label="Layer 1"
     inkscape:groupmode="layer"
     id="layer1"
     transform="translate(0,-126)">
    <g
       transform="matrix(0.19223421,0,0,-0.19223421,7.780279,258.16383)"
       inkscape:label="ink_ext_XXXXXX"
       id="g18">
      <g
         transform="matrix(0.10221966,0,0,0.10221966,-23.594721,-191.69342)"
         id="g20"
         style="fill:#ffffff;fill-opacity:1">
        <path
           inkscape:connector-curvature="0"
           id="path22"
           style="fill:#ffffff;fill-opacity:1;fill-rule:nonzero;stroke:none"
           d="m 7128.46,5246.49 h 563.3 l -276.21,919.39 h -10.88 z M 6939.51,4701.4 6797.76,4312.55 h -737.68 l 1079.3,2689.15 h 541.46 l 1068.4,-2689.15 h -744.97 l -130.81,388.85 h -933.95" />
        <path
           inkscape:connector-curvature="0"
           id="path24"
           style="fill:#ffffff;fill-opacity:1;fill-rule:nonzero;stroke:none"
           d="M 9988.93,7001.7 H 8520.81 V 5217.81 l 359.66,-905.26 h 298.08 v 1024.79 h 781.31 v 603.25 h -781.31 v 457.87 h 686.28 124.1 406.47 V 4312.55 h 416.5 270.3 v 2085.91 h 648.1 V 7001.7 H 9988.93" />
        <path
           inkscape:connector-curvature="0"
           id="path26"
           style="fill:#ffffff;fill-opacity:1;fill-rule:nonzero;stroke:none"
           d="m 5510.66,5649.86 h -243.48 v 748.6 h 250.73 c 265.29,0 443.36,-119.92 443.36,-363.38 0,-130.84 -47.23,-385.22 -450.61,-385.22 z m 1108.35,425.17 c 0,276.2 -109.01,559.65 -330.68,734.08 -174.43,134.45 -356.13,192.59 -828.57,192.59 H 4609.43 V 5350.36 H 4499.8 c -0.23,-0.49 -0.58,-1.22 -0.81,-1.72 -2.71,-5.85 -5.83,-12.53 -9.52,-20.13 -1.41,-2.9 -3.19,-6.36 -4.75,-9.49 -2.63,-5.32 -5.14,-10.43 -8.22,-16.35 -2.53,-4.89 -5.58,-10.33 -8.43,-15.58 -2.63,-4.88 -5.03,-9.46 -7.94,-14.61 -3.75,-6.64 -8.11,-13.77 -12.32,-20.81 -2.6,-4.33 -4.9,-8.42 -7.67,-12.87 -4.82,-7.77 -10.3,-15.89 -15.69,-23.98 -2.77,-4.15 -5.22,-8.13 -8.13,-12.35 -6.13,-8.86 -12.95,-17.94 -19.75,-27.02 -2.73,-3.64 -5.13,-7.18 -7.97,-10.84 -7.4,-9.55 -15.54,-19.15 -23.7,-28.76 -2.82,-3.31 -5.32,-6.61 -8.23,-9.92 -8.51,-9.67 -17.78,-19.24 -27.1,-28.8 -3.14,-3.23 -5.94,-6.5 -9.17,-9.7 -9.66,-9.55 -20.12,-18.85 -30.64,-28.13 -3.46,-3.06 -6.58,-6.23 -10.14,-9.25 -10.79,-9.15 -22.42,-17.87 -34.1,-26.57 -3.89,-2.89 -7.4,-5.97 -11.38,-8.8 -11.97,-8.52 -24.84,-16.46 -37.74,-24.35 -4.29,-2.63 -8.19,-5.53 -12.58,-8.08 -13.12,-7.62 -27.17,-14.47 -41.24,-21.31 -4.82,-2.34 -9.22,-5.03 -14.15,-7.27 -13.83,-6.28 -28.62,-11.64 -43.36,-17.06 -5.86,-2.16 -11.28,-4.75 -17.29,-6.76 -14.99,-5.01 -30.98,-8.92 -46.89,-12.91 -6.47,-1.62 -12.47,-3.78 -19.09,-5.22 -16.32,-3.55 -33.68,-5.84 -50.96,-8.23 -6.99,-0.97 -13.48,-2.56 -20.64,-3.32 -24.78,-2.64 -50.52,-4.05 -77.26,-4.05 -446.99,0 -723.17,392.46 -723.17,799.47 0,381.57 258.02,784.97 719.53,784.97 23.13,0 45.61,-1.05 67.45,-3.06 7.2,-0.67 13.91,-2.04 20.97,-2.91 14.36,-1.78 28.85,-3.36 42.64,-5.95 7.76,-1.45 14.98,-3.62 22.56,-5.32 12.52,-2.82 25.23,-5.38 37.26,-8.84 7.88,-2.26 15.22,-5.19 22.9,-7.72 11.13,-3.66 22.47,-7.05 33.17,-11.23 7.93,-3.1 15.31,-6.82 23,-10.19 9.84,-4.31 19.93,-8.34 29.4,-13.07 7.91,-3.95 15.26,-8.47 22.91,-12.7 8.64,-4.77 17.54,-9.28 25.85,-14.37 7.97,-4.89 15.36,-10.29 23.02,-15.45 7.4,-4.98 15.07,-9.72 22.19,-14.94 7.78,-5.71 14.98,-11.86 22.42,-17.83 6.42,-5.14 13.12,-10.07 19.29,-15.39 7.95,-6.85 15.3,-14.07 22.84,-21.18 5.09,-4.8 10.47,-9.41 15.38,-14.31 7.9,-7.9 15.2,-16.08 22.62,-24.21 4.04,-4.41 8.36,-8.7 12.26,-13.17 7.75,-8.89 14.9,-18 22.11,-27.08 3.08,-3.89 6.44,-7.68 9.43,-11.59 7.64,-10.02 14.7,-20.18 21.72,-30.33 2.12,-3.08 4.48,-6.11 6.55,-9.2 7.49,-11.17 14.4,-22.38 21.15,-33.59 1.25,-2.09 2.69,-4.18 3.92,-6.27 6.95,-11.81 13.35,-23.56 19.49,-35.28 0.78,-1.5 1.7,-3.02 2.48,-4.51 6.62,-12.83 12.71,-25.55 18.37,-38.11 0.16,-0.32 0.33,-0.65 0.47,-0.98 5.77,-12.85 11.04,-25.51 15.82,-37.93 0.02,-0.05 0.05,-0.12 0.08,-0.17 v 921.42 c -89.56,45.12 -187.44,81.86 -293.61,107.58 -4.36,1.06 -8.83,1.97 -13.22,2.99 -20.64,4.79 -41.6,9.15 -62.87,13.08 -7.54,1.39 -15.14,2.68 -22.75,3.96 -18.71,3.15 -37.68,5.89 -56.86,8.36 -8.84,1.12 -17.67,2.29 -26.62,3.27 -19.38,2.14 -39.1,3.75 -58.96,5.15 -8.42,0.59 -16.72,1.39 -25.23,1.84 -28.21,1.53 -56.8,2.47 -85.96,2.47 -879.44,0 -1410.01,-705 -1410.01,-1391.82 0,-726.8 574.2,-1399.1 1417.29,-1399.1 35.78,0 71.13,1.78 106.27,4.3 11.35,0.83 22.64,1.89 33.92,2.98 24.29,2.3 48.35,5.37 72.27,8.85 12.28,1.82 24.68,3.28 36.85,5.41 29.41,5.06 58.43,11.21 87.19,18.02 19.32,4.63 38.36,9.97 57.36,15.38 10.8,3.04 21.54,6.19 32.23,9.48 33.8,10.4 66.85,22.4 99.5,35.21 8.64,3.38 17.08,7.09 25.63,10.64 24.29,10.08 48.22,20.79 71.79,32.18 5.18,2.51 10.64,4.51 15.79,7.08 v 0.69 c 37.89,18.92 74.58,39.84 110.41,62.05 v -192.6 h 657.75 v 868.52 h 7.27 l 621.4,-868.52 h 24.02 l 259.94,626.47 -229.43,289.31 c 508.75,83.58 668.63,537.82 668.63,846.7" />
        <path
           inkscape:connector-curvature="0"
           id="path28"
           style="fill:#ffffff;fill-opacity:1;fill-rule:nonzero;stroke:none"
           d="M 545.125,545.121 H 13628.1 V 7864.02 H 545.125 Z M 14173.2,0 H -0.00390625 V 8409.14 H 14173.2 V 0" />
        <path
           inkscape:connector-curvature="0"
           id="path30"
           style="fill:#ffffff;fill-opacity:1;fill-rule:nonzero;stroke:none"
           d="m 2791.42,2460.3 h 563.29 l -276.2,919.39 h -10.89 z M 2602.47,1915.21 2460.72,1526.35 H 1723.03 L 2802.34,4215.51 H 3343.8 L 4412.19,1526.35 h -744.97 l -130.81,388.86 h -933.94" />
        <path
           inkscape:connector-curvature="0"
           id="path32"
           style="fill:#ffffff;fill-opacity:1;fill-rule:nonzero;stroke:none"
           d="m 5624.52,3612.27 v 603.24 H 4156.39 V 2431.63 l 359.66,-905.28 h 298.09 v 1024.81 h 781.31 v 603.23 h -781.31 v 457.88 h 810.38" />
        <path
           inkscape:connector-curvature="0"
           id="path34"
           style="fill:#ffffff;fill-opacity:1;fill-rule:nonzero;stroke:none"
           d="M 7613.28,4215.51 V 1926.52 l 319.18,-400.17 h 367.67 v 2689.16 h -686.85" />
        <path
           inkscape:connector-curvature="0"
           id="path36"
           style="fill:#ffffff;fill-opacity:1;fill-rule:nonzero;stroke:none"
           d="m 6641.16,2863.67 h -243.52 v 748.6 h 250.79 c 265.29,0 443.33,-119.92 443.33,-363.39 0,-130.84 -47.26,-385.21 -450.6,-385.21 z m 850.99,-937.15 -411.27,515.62 c 176.89,29.07 310.78,103.49 411.27,200.48 v 0 1314.08 0 c -22.99,23.36 -47.25,45.68 -73.35,66.22 -174.44,134.45 -356.08,192.59 -828.51,192.59 h -850.4 V 1526.35 h 657.75 v 868.53 h 7.28 l 621.42,-868.53 h 784.98 l -319.17,400.17 v 0" />
        <path
           inkscape:connector-curvature="0"
           id="path38"
           style="fill:#ffffff;fill-opacity:1;fill-rule:nonzero;stroke:none"
           d="m 11007.3,2460.47 h -177.9 l 276.2,919.4 h 10.9 l 276.2,-919.4 z m 374.5,1755.21 h -541.5 l -814.6,-2029.73 c -44.32,-29.42 -94.16,-55.15 -150.81,-73.86 -62.78,-20.74 -133.43,-33.2 -212.9,-33.2 -446.99,0 -723.16,392.46 -723.16,799.48 0,381.57 258.01,784.98 719.5,784.98 370.67,0 574.27,-268.93 650.57,-468.8 h 0.4 l 291,724.83 c -225.1,199.81 -537.2,347.2 -938.31,347.2 -579.33,0 -1007.16,-305.98 -1231.77,-711.12 V 2193.08 c 231.99,-416.57 675.21,-717.42 1239.05,-717.42 131.63,0 258.9,18.06 380.03,50.87 h 449.4 l 141.7,388.85 h 57.1 876.9 l 130.8,-388.85 h 745 l -1068.4,2689.15" />
      </g>
    </g>
  </g>
</svg>
