<?xml version="1.0" standalone="no"?>
<!DOCTYPE svg PUBLIC "-//W3C//DTD SVG 20010904//EN"
 "http://www.w3.org/TR/2001/REC-SVG-20010904/DTD/svg10.dtd">
<svg version="1.0" xmlns="http://www.w3.org/2000/svg"
 width="700.000000pt" height="700.000000pt" viewBox="0 0 700.000000 700.000000"
 preserveAspectRatio="xMidYMid meet">
<metadata>
Created by potrace 1.11, written by Peter Selinger 2001-2013
</metadata>
<g transform="translate(0.000000,700.000000) scale(0.100000,-0.100000)"
fill="#000000" stroke="none">
<path d="M477 6530 c-10 -4 -12 -636 -12 -3045 l0 -3040 3043 0 c1673 -1 3042
2 3043 5 5 27 2 6065 -3 6073 -5 8 -847 11 -3033 11 -1664 1 -3031 -1 -3038
-4z m5468 -3043 l0 -2427 -2435 2 -2435 3 -1 2420 c-1 1331 0 2422 1 2425 2 3
1098 5 2437 5 l2433 0 0 -2428z"/>
<path d="M2850 5089 c-476 -41 -867 -305 -1079 -727 -256 -509 -160 -1132 238
-1540 122 -127 164 -158 326 -250 122 -69 302 -130 435 -147 30 -4 64 -9 75
-11 11 -3 73 -5 138 -5 64 -1 117 -2 117 -4 0 -5 -69 -185 -84 -219 -34 -78
-116 -289 -116 -300 0 -10 83 -12 353 -12 l352 0 18 51 c10 27 22 59 27 70 4
11 27 73 51 138 l42 117 451 -2 450 -3 63 -185 c34 -102 63 -185 63 -186 0 0
162 0 360 0 247 0 359 3 356 11 -2 5 -235 587 -517 1293 l-513 1282 -261 0
-261 0 -268 -669 c-147 -369 -277 -677 -287 -687 -46 -41 -168 -98 -244 -113
-226 -45 -453 19 -608 172 -267 264 -314 714 -107 1031 139 212 340 318 590
311 254 -8 447 -138 575 -387 23 -44 31 -53 36 -40 4 9 66 163 138 342 72 178
131 330 131 336 0 14 -120 105 -205 156 -130 77 -308 142 -450 162 -22 4 -53
9 -70 11 -53 9 -227 11 -315 4z m1384 -1544 c75 -253 160 -534 194 -647 22
-71 36 -129 33 -130 -25 -7 -531 -3 -531 4 0 6 16 62 36 126 19 64 37 124 39
132 4 16 173 586 181 609 8 24 20 0 48 -94z"/>
</g>
</svg>
